<mxfile host="app.diagrams.net" agent="Mozilla/5.0 (Macintosh; Intel Mac OS X 10.15; rv:141.0) Gecko/20100101 Firefox/141.0" version="28.0.7">
  <diagram name="Page-1" id="BkYGHvHkSKZDxgJ14A1S">
    <mxGraphModel dx="1186" dy="798" grid="1" gridSize="10" guides="1" tooltips="1" connect="1" arrows="1" fold="1" page="1" pageScale="1" pageWidth="827" pageHeight="1169" math="0" shadow="0">
      <root>
        <mxCell id="0" />
        <mxCell id="1" parent="0" />
        <mxCell id="-aNVaNaORuces1c9qpF5-1" value="Moi" style="rounded=1;whiteSpace=wrap;html=1;" vertex="1" parent="1">
          <mxGeometry x="90" y="620" width="120" height="60" as="geometry" />
        </mxCell>
        <mxCell id="-aNVaNaORuces1c9qpF5-2" value="Thanya" style="rounded=1;whiteSpace=wrap;html=1;" vertex="1" parent="1">
          <mxGeometry x="230" y="620" width="120" height="60" as="geometry" />
        </mxCell>
        <mxCell id="-aNVaNaORuces1c9qpF5-3" value="Ilyane" style="rounded=1;whiteSpace=wrap;html=1;" vertex="1" parent="1">
          <mxGeometry x="370" y="620" width="120" height="60" as="geometry" />
        </mxCell>
        <mxCell id="-aNVaNaORuces1c9qpF5-4" value="Maman (Nabila)" style="whiteSpace=wrap;html=1;rounded=1;" vertex="1" parent="1">
          <mxGeometry x="160" y="500" width="120" height="60" as="geometry" />
        </mxCell>
        <mxCell id="-aNVaNaORuces1c9qpF5-5" value="Papa (Ghanem)" style="whiteSpace=wrap;html=1;rounded=1;" vertex="1" parent="1">
          <mxGeometry x="300" y="500" width="120" height="60" as="geometry" />
        </mxCell>
        <mxCell id="-aNVaNaORuces1c9qpF5-6" value="" style="endArrow=none;html=1;rounded=0;exitX=1;exitY=0.5;exitDx=0;exitDy=0;entryX=0;entryY=0.5;entryDx=0;entryDy=0;" edge="1" parent="1" source="-aNVaNaORuces1c9qpF5-4" target="-aNVaNaORuces1c9qpF5-5">
          <mxGeometry width="50" height="50" relative="1" as="geometry">
            <mxPoint x="270" y="660" as="sourcePoint" />
            <mxPoint x="340" y="590" as="targetPoint" />
          </mxGeometry>
        </mxCell>
        <mxCell id="-aNVaNaORuces1c9qpF5-7" value="" style="endArrow=none;html=1;rounded=0;exitX=0.5;exitY=0;exitDx=0;exitDy=0;" edge="1" parent="1" source="-aNVaNaORuces1c9qpF5-2">
          <mxGeometry width="50" height="50" relative="1" as="geometry">
            <mxPoint x="270" y="660" as="sourcePoint" />
            <mxPoint x="290" y="530" as="targetPoint" />
          </mxGeometry>
        </mxCell>
        <mxCell id="-aNVaNaORuces1c9qpF5-8" value="" style="endArrow=none;html=1;rounded=0;" edge="1" parent="1">
          <mxGeometry width="50" height="50" relative="1" as="geometry">
            <mxPoint x="150" y="580" as="sourcePoint" />
            <mxPoint x="430" y="580" as="targetPoint" />
          </mxGeometry>
        </mxCell>
        <mxCell id="-aNVaNaORuces1c9qpF5-9" value="" style="endArrow=none;html=1;rounded=0;exitX=0.5;exitY=0;exitDx=0;exitDy=0;" edge="1" parent="1" source="-aNVaNaORuces1c9qpF5-1">
          <mxGeometry width="50" height="50" relative="1" as="geometry">
            <mxPoint x="270" y="660" as="sourcePoint" />
            <mxPoint x="150" y="580" as="targetPoint" />
          </mxGeometry>
        </mxCell>
        <mxCell id="-aNVaNaORuces1c9qpF5-10" value="" style="endArrow=none;html=1;rounded=0;exitX=0.5;exitY=0;exitDx=0;exitDy=0;" edge="1" parent="1">
          <mxGeometry width="50" height="50" relative="1" as="geometry">
            <mxPoint x="429.5" y="620" as="sourcePoint" />
            <mxPoint x="429.5" y="580" as="targetPoint" />
          </mxGeometry>
        </mxCell>
        <mxCell id="-aNVaNaORuces1c9qpF5-11" value="Yannis" style="rounded=1;whiteSpace=wrap;html=1;" vertex="1" parent="1">
          <mxGeometry x="510" y="620" width="120" height="60" as="geometry" />
        </mxCell>
        <mxCell id="-aNVaNaORuces1c9qpF5-12" value="Walid" style="rounded=1;whiteSpace=wrap;html=1;" vertex="1" parent="1">
          <mxGeometry x="650" y="620" width="120" height="60" as="geometry" />
        </mxCell>
        <mxCell id="-aNVaNaORuces1c9qpF5-13" value="Himed" style="rounded=1;whiteSpace=wrap;html=1;" vertex="1" parent="1">
          <mxGeometry x="790" y="620" width="120" height="60" as="geometry" />
        </mxCell>
        <mxCell id="-aNVaNaORuces1c9qpF5-14" value="Tata Nawal" style="whiteSpace=wrap;html=1;rounded=1;" vertex="1" parent="1">
          <mxGeometry x="580" y="500" width="120" height="60" as="geometry" />
        </mxCell>
        <mxCell id="-aNVaNaORuces1c9qpF5-15" value="Tonton Adel" style="whiteSpace=wrap;html=1;rounded=1;" vertex="1" parent="1">
          <mxGeometry x="720" y="500" width="120" height="60" as="geometry" />
        </mxCell>
        <mxCell id="-aNVaNaORuces1c9qpF5-16" value="" style="endArrow=none;html=1;rounded=0;exitX=1;exitY=0.5;exitDx=0;exitDy=0;entryX=0;entryY=0.5;entryDx=0;entryDy=0;" edge="1" parent="1" source="-aNVaNaORuces1c9qpF5-14" target="-aNVaNaORuces1c9qpF5-15">
          <mxGeometry width="50" height="50" relative="1" as="geometry">
            <mxPoint x="690" y="660" as="sourcePoint" />
            <mxPoint x="760" y="590" as="targetPoint" />
          </mxGeometry>
        </mxCell>
        <mxCell id="-aNVaNaORuces1c9qpF5-17" value="" style="endArrow=none;html=1;rounded=0;exitX=0.5;exitY=0;exitDx=0;exitDy=0;" edge="1" parent="1" source="-aNVaNaORuces1c9qpF5-12">
          <mxGeometry width="50" height="50" relative="1" as="geometry">
            <mxPoint x="690" y="660" as="sourcePoint" />
            <mxPoint x="710" y="530" as="targetPoint" />
          </mxGeometry>
        </mxCell>
        <mxCell id="-aNVaNaORuces1c9qpF5-18" value="" style="endArrow=none;html=1;rounded=0;" edge="1" parent="1">
          <mxGeometry width="50" height="50" relative="1" as="geometry">
            <mxPoint x="570" y="580" as="sourcePoint" />
            <mxPoint x="850" y="580" as="targetPoint" />
          </mxGeometry>
        </mxCell>
        <mxCell id="-aNVaNaORuces1c9qpF5-19" value="" style="endArrow=none;html=1;rounded=0;exitX=0.5;exitY=0;exitDx=0;exitDy=0;" edge="1" parent="1" source="-aNVaNaORuces1c9qpF5-11">
          <mxGeometry width="50" height="50" relative="1" as="geometry">
            <mxPoint x="690" y="660" as="sourcePoint" />
            <mxPoint x="570" y="580" as="targetPoint" />
          </mxGeometry>
        </mxCell>
        <mxCell id="-aNVaNaORuces1c9qpF5-20" value="" style="endArrow=none;html=1;rounded=0;exitX=0.5;exitY=0;exitDx=0;exitDy=0;" edge="1" parent="1">
          <mxGeometry width="50" height="50" relative="1" as="geometry">
            <mxPoint x="849.5" y="620" as="sourcePoint" />
            <mxPoint x="849.5" y="580" as="targetPoint" />
          </mxGeometry>
        </mxCell>
        <mxCell id="-aNVaNaORuces1c9qpF5-21" value="Samy" style="rounded=1;whiteSpace=wrap;html=1;" vertex="1" parent="1">
          <mxGeometry x="930" y="620" width="120" height="60" as="geometry" />
        </mxCell>
        <mxCell id="-aNVaNaORuces1c9qpF5-22" value="Rayan" style="rounded=1;whiteSpace=wrap;html=1;" vertex="1" parent="1">
          <mxGeometry x="1070" y="620" width="120" height="60" as="geometry" />
        </mxCell>
        <mxCell id="-aNVaNaORuces1c9qpF5-23" value="Amir" style="rounded=1;whiteSpace=wrap;html=1;" vertex="1" parent="1">
          <mxGeometry x="1210" y="620" width="120" height="60" as="geometry" />
        </mxCell>
        <mxCell id="-aNVaNaORuces1c9qpF5-24" value="Tata Kiltoum" style="whiteSpace=wrap;html=1;rounded=1;" vertex="1" parent="1">
          <mxGeometry x="1000" y="500" width="120" height="60" as="geometry" />
        </mxCell>
        <mxCell id="-aNVaNaORuces1c9qpF5-25" value="Tonton Adnane" style="whiteSpace=wrap;html=1;rounded=1;" vertex="1" parent="1">
          <mxGeometry x="1140" y="500" width="120" height="60" as="geometry" />
        </mxCell>
        <mxCell id="-aNVaNaORuces1c9qpF5-26" value="" style="endArrow=none;html=1;rounded=0;exitX=1;exitY=0.5;exitDx=0;exitDy=0;entryX=0;entryY=0.5;entryDx=0;entryDy=0;" edge="1" parent="1" source="-aNVaNaORuces1c9qpF5-24" target="-aNVaNaORuces1c9qpF5-25">
          <mxGeometry width="50" height="50" relative="1" as="geometry">
            <mxPoint x="1110" y="660" as="sourcePoint" />
            <mxPoint x="1180" y="590" as="targetPoint" />
          </mxGeometry>
        </mxCell>
        <mxCell id="-aNVaNaORuces1c9qpF5-27" value="" style="endArrow=none;html=1;rounded=0;exitX=0.5;exitY=0;exitDx=0;exitDy=0;" edge="1" parent="1" source="-aNVaNaORuces1c9qpF5-22">
          <mxGeometry width="50" height="50" relative="1" as="geometry">
            <mxPoint x="1110" y="660" as="sourcePoint" />
            <mxPoint x="1130" y="530" as="targetPoint" />
          </mxGeometry>
        </mxCell>
        <mxCell id="-aNVaNaORuces1c9qpF5-28" value="" style="endArrow=none;html=1;rounded=0;" edge="1" parent="1">
          <mxGeometry width="50" height="50" relative="1" as="geometry">
            <mxPoint x="990" y="580" as="sourcePoint" />
            <mxPoint x="1270" y="580" as="targetPoint" />
          </mxGeometry>
        </mxCell>
        <mxCell id="-aNVaNaORuces1c9qpF5-29" value="" style="endArrow=none;html=1;rounded=0;exitX=0.5;exitY=0;exitDx=0;exitDy=0;" edge="1" parent="1" source="-aNVaNaORuces1c9qpF5-21">
          <mxGeometry width="50" height="50" relative="1" as="geometry">
            <mxPoint x="1110" y="660" as="sourcePoint" />
            <mxPoint x="990" y="580" as="targetPoint" />
          </mxGeometry>
        </mxCell>
        <mxCell id="-aNVaNaORuces1c9qpF5-30" value="" style="endArrow=none;html=1;rounded=0;exitX=0.5;exitY=0;exitDx=0;exitDy=0;" edge="1" parent="1">
          <mxGeometry width="50" height="50" relative="1" as="geometry">
            <mxPoint x="1269.5" y="620" as="sourcePoint" />
            <mxPoint x="1269.5" y="580" as="targetPoint" />
          </mxGeometry>
        </mxCell>
        <mxCell id="-aNVaNaORuces1c9qpF5-31" value="Mahdi" style="rounded=1;whiteSpace=wrap;html=1;" vertex="1" parent="1">
          <mxGeometry x="1350" y="620" width="120" height="60" as="geometry" />
        </mxCell>
        <mxCell id="-aNVaNaORuces1c9qpF5-32" value="Maher" style="rounded=1;whiteSpace=wrap;html=1;" vertex="1" parent="1">
          <mxGeometry x="1490" y="620" width="120" height="60" as="geometry" />
        </mxCell>
        <mxCell id="-aNVaNaORuces1c9qpF5-33" value="Tata Lina" style="whiteSpace=wrap;html=1;rounded=1;" vertex="1" parent="1">
          <mxGeometry x="1420" y="500" width="120" height="60" as="geometry" />
        </mxCell>
        <mxCell id="-aNVaNaORuces1c9qpF5-34" value="" style="endArrow=none;html=1;rounded=0;" edge="1" parent="1">
          <mxGeometry width="50" height="50" relative="1" as="geometry">
            <mxPoint x="1484" y="580" as="sourcePoint" />
            <mxPoint x="1484" y="560" as="targetPoint" />
            <Array as="points" />
          </mxGeometry>
        </mxCell>
        <mxCell id="-aNVaNaORuces1c9qpF5-35" value="" style="endArrow=none;html=1;rounded=0;" edge="1" parent="1">
          <mxGeometry width="50" height="50" relative="1" as="geometry">
            <mxPoint x="1410" y="580" as="sourcePoint" />
            <mxPoint x="1550" y="580" as="targetPoint" />
          </mxGeometry>
        </mxCell>
        <mxCell id="-aNVaNaORuces1c9qpF5-36" value="" style="endArrow=none;html=1;rounded=0;exitX=0.5;exitY=0;exitDx=0;exitDy=0;" edge="1" parent="1" source="-aNVaNaORuces1c9qpF5-31">
          <mxGeometry width="50" height="50" relative="1" as="geometry">
            <mxPoint x="1530" y="660" as="sourcePoint" />
            <mxPoint x="1410" y="580" as="targetPoint" />
          </mxGeometry>
        </mxCell>
        <mxCell id="-aNVaNaORuces1c9qpF5-37" value="" style="endArrow=none;html=1;rounded=0;exitX=0.5;exitY=0;exitDx=0;exitDy=0;" edge="1" parent="1">
          <mxGeometry width="50" height="50" relative="1" as="geometry">
            <mxPoint x="1549.6" y="620" as="sourcePoint" />
            <mxPoint x="1549.6" y="580" as="targetPoint" />
          </mxGeometry>
        </mxCell>
        <mxCell id="-aNVaNaORuces1c9qpF5-38" value="(Tata) Sara" style="whiteSpace=wrap;html=1;rounded=1;" vertex="1" parent="1">
          <mxGeometry x="1630" y="500" width="120" height="60" as="geometry" />
        </mxCell>
        <mxCell id="-aNVaNaORuces1c9qpF5-39" value="Tonton Samir" style="whiteSpace=wrap;html=1;rounded=1;" vertex="1" parent="1">
          <mxGeometry x="1770" y="500" width="120" height="60" as="geometry" />
        </mxCell>
        <mxCell id="-aNVaNaORuces1c9qpF5-40" value="" style="endArrow=none;html=1;rounded=0;exitX=1;exitY=0.5;exitDx=0;exitDy=0;entryX=0;entryY=0.5;entryDx=0;entryDy=0;" edge="1" parent="1" source="-aNVaNaORuces1c9qpF5-38" target="-aNVaNaORuces1c9qpF5-39">
          <mxGeometry width="50" height="50" relative="1" as="geometry">
            <mxPoint x="1740" y="660" as="sourcePoint" />
            <mxPoint x="1810" y="590" as="targetPoint" />
          </mxGeometry>
        </mxCell>
        <mxCell id="-aNVaNaORuces1c9qpF5-41" value="" style="endArrow=none;html=1;rounded=0;" edge="1" parent="1">
          <mxGeometry width="50" height="50" relative="1" as="geometry">
            <mxPoint x="360" y="480" as="sourcePoint" />
            <mxPoint x="1830" y="480" as="targetPoint" />
          </mxGeometry>
        </mxCell>
        <mxCell id="-aNVaNaORuces1c9qpF5-42" value="" style="endArrow=none;html=1;rounded=0;exitX=0.5;exitY=0;exitDx=0;exitDy=0;" edge="1" parent="1" source="-aNVaNaORuces1c9qpF5-5">
          <mxGeometry width="50" height="50" relative="1" as="geometry">
            <mxPoint x="439.5" y="630" as="sourcePoint" />
            <mxPoint x="360" y="480" as="targetPoint" />
          </mxGeometry>
        </mxCell>
        <mxCell id="-aNVaNaORuces1c9qpF5-43" value="" style="endArrow=none;html=1;rounded=0;exitX=0.5;exitY=0;exitDx=0;exitDy=0;" edge="1" parent="1">
          <mxGeometry width="50" height="50" relative="1" as="geometry">
            <mxPoint x="779" y="500" as="sourcePoint" />
            <mxPoint x="779" y="480" as="targetPoint" />
          </mxGeometry>
        </mxCell>
        <mxCell id="-aNVaNaORuces1c9qpF5-44" value="" style="endArrow=none;html=1;rounded=0;exitX=0.5;exitY=0;exitDx=0;exitDy=0;" edge="1" parent="1">
          <mxGeometry width="50" height="50" relative="1" as="geometry">
            <mxPoint x="1199" y="500" as="sourcePoint" />
            <mxPoint x="1199" y="480" as="targetPoint" />
          </mxGeometry>
        </mxCell>
        <mxCell id="-aNVaNaORuces1c9qpF5-45" value="" style="endArrow=none;html=1;rounded=0;exitX=0.5;exitY=0;exitDx=0;exitDy=0;" edge="1" parent="1">
          <mxGeometry width="50" height="50" relative="1" as="geometry">
            <mxPoint x="1482" y="500" as="sourcePoint" />
            <mxPoint x="1482" y="480" as="targetPoint" />
          </mxGeometry>
        </mxCell>
        <mxCell id="-aNVaNaORuces1c9qpF5-46" value="" style="endArrow=none;html=1;rounded=0;exitX=0.5;exitY=0;exitDx=0;exitDy=0;" edge="1" parent="1">
          <mxGeometry width="50" height="50" relative="1" as="geometry">
            <mxPoint x="1829" y="500" as="sourcePoint" />
            <mxPoint x="1829" y="480" as="targetPoint" />
          </mxGeometry>
        </mxCell>
        <mxCell id="-aNVaNaORuces1c9qpF5-47" value="" style="endArrow=none;html=1;rounded=0;" edge="1" parent="1">
          <mxGeometry width="50" height="50" relative="1" as="geometry">
            <mxPoint x="1060" y="480" as="sourcePoint" />
            <mxPoint x="1059" y="410" as="targetPoint" />
          </mxGeometry>
        </mxCell>
        <mxCell id="-aNVaNaORuces1c9qpF5-48" value="Ima-sassa (Tassardite)" style="whiteSpace=wrap;html=1;rounded=1;" vertex="1" parent="1">
          <mxGeometry x="930" y="380" width="120" height="60" as="geometry" />
        </mxCell>
        <mxCell id="-aNVaNaORuces1c9qpF5-49" value="Jedis (Amar)" style="whiteSpace=wrap;html=1;rounded=1;" vertex="1" parent="1">
          <mxGeometry x="1070" y="380" width="120" height="60" as="geometry" />
        </mxCell>
        <mxCell id="-aNVaNaORuces1c9qpF5-50" value="" style="endArrow=none;html=1;rounded=0;exitX=1;exitY=0.5;exitDx=0;exitDy=0;entryX=0;entryY=0.5;entryDx=0;entryDy=0;" edge="1" parent="1" source="-aNVaNaORuces1c9qpF5-48" target="-aNVaNaORuces1c9qpF5-49">
          <mxGeometry width="50" height="50" relative="1" as="geometry">
            <mxPoint x="1040" y="540" as="sourcePoint" />
            <mxPoint x="1110" y="470" as="targetPoint" />
          </mxGeometry>
        </mxCell>
        <mxCell id="-aNVaNaORuces1c9qpF5-51" value="" style="endArrow=none;html=1;rounded=0;" edge="1" parent="1">
          <mxGeometry width="50" height="50" relative="1" as="geometry">
            <mxPoint x="2200" y="480" as="sourcePoint" />
            <mxPoint x="2199" y="410" as="targetPoint" />
          </mxGeometry>
        </mxCell>
        <mxCell id="-aNVaNaORuces1c9qpF5-52" value="Tata Ghanima" style="whiteSpace=wrap;html=1;rounded=1;" vertex="1" parent="1">
          <mxGeometry x="2070" y="380" width="120" height="60" as="geometry" />
        </mxCell>
        <mxCell id="-aNVaNaORuces1c9qpF5-53" value="Tonton Abdelkrim" style="whiteSpace=wrap;html=1;rounded=1;" vertex="1" parent="1">
          <mxGeometry x="2210" y="380" width="120" height="60" as="geometry" />
        </mxCell>
        <mxCell id="-aNVaNaORuces1c9qpF5-54" value="" style="endArrow=none;html=1;rounded=0;exitX=1;exitY=0.5;exitDx=0;exitDy=0;entryX=0;entryY=0.5;entryDx=0;entryDy=0;" edge="1" parent="1" source="-aNVaNaORuces1c9qpF5-52" target="-aNVaNaORuces1c9qpF5-53">
          <mxGeometry width="50" height="50" relative="1" as="geometry">
            <mxPoint x="2180" y="540" as="sourcePoint" />
            <mxPoint x="2250" y="470" as="targetPoint" />
          </mxGeometry>
        </mxCell>
        <mxCell id="-aNVaNaORuces1c9qpF5-55" value="" style="endArrow=none;html=1;rounded=0;" edge="1" parent="1">
          <mxGeometry width="50" height="50" relative="1" as="geometry">
            <mxPoint x="2059" y="580" as="sourcePoint" />
            <mxPoint x="2059" y="530" as="targetPoint" />
          </mxGeometry>
        </mxCell>
        <mxCell id="-aNVaNaORuces1c9qpF5-56" value="Tonton ???" style="whiteSpace=wrap;html=1;rounded=1;" vertex="1" parent="1">
          <mxGeometry x="1930" y="500" width="120" height="60" as="geometry" />
        </mxCell>
        <mxCell id="-aNVaNaORuces1c9qpF5-57" value="Tata Sabrina" style="whiteSpace=wrap;html=1;rounded=1;" vertex="1" parent="1">
          <mxGeometry x="2070" y="500" width="120" height="60" as="geometry" />
        </mxCell>
        <mxCell id="-aNVaNaORuces1c9qpF5-58" value="" style="endArrow=none;html=1;rounded=0;exitX=1;exitY=0.5;exitDx=0;exitDy=0;entryX=0;entryY=0.5;entryDx=0;entryDy=0;" edge="1" parent="1" source="-aNVaNaORuces1c9qpF5-56" target="-aNVaNaORuces1c9qpF5-57">
          <mxGeometry width="50" height="50" relative="1" as="geometry">
            <mxPoint x="2040" y="660" as="sourcePoint" />
            <mxPoint x="2110" y="590" as="targetPoint" />
          </mxGeometry>
        </mxCell>
        <mxCell id="-aNVaNaORuces1c9qpF5-59" value="Tonton Mohend" style="whiteSpace=wrap;html=1;rounded=1;" vertex="1" parent="1">
          <mxGeometry x="2210" y="500" width="120" height="60" as="geometry" />
        </mxCell>
        <mxCell id="-aNVaNaORuces1c9qpF5-60" value="" style="endArrow=none;html=1;rounded=0;exitX=0.5;exitY=0;exitDx=0;exitDy=0;" edge="1" parent="1">
          <mxGeometry width="50" height="50" relative="1" as="geometry">
            <mxPoint x="2272" y="500" as="sourcePoint" />
            <mxPoint x="2272" y="480" as="targetPoint" />
          </mxGeometry>
        </mxCell>
        <mxCell id="-aNVaNaORuces1c9qpF5-61" value="" style="endArrow=none;html=1;rounded=0;exitX=0.5;exitY=0;exitDx=0;exitDy=0;" edge="1" parent="1">
          <mxGeometry width="50" height="50" relative="1" as="geometry">
            <mxPoint x="2129.23" y="500" as="sourcePoint" />
            <mxPoint x="2129.23" y="480" as="targetPoint" />
          </mxGeometry>
        </mxCell>
        <mxCell id="-aNVaNaORuces1c9qpF5-62" value="" style="endArrow=none;html=1;rounded=0;" edge="1" parent="1">
          <mxGeometry width="50" height="50" relative="1" as="geometry">
            <mxPoint x="2130" y="480" as="sourcePoint" />
            <mxPoint x="2270" y="480" as="targetPoint" />
          </mxGeometry>
        </mxCell>
        <mxCell id="-aNVaNaORuces1c9qpF5-63" value="Shamy" style="rounded=1;whiteSpace=wrap;html=1;" vertex="1" parent="1">
          <mxGeometry x="1930" y="620" width="120" height="60" as="geometry" />
        </mxCell>
        <mxCell id="-aNVaNaORuces1c9qpF5-64" value="Lina" style="rounded=1;whiteSpace=wrap;html=1;" vertex="1" parent="1">
          <mxGeometry x="2070" y="620" width="120" height="60" as="geometry" />
        </mxCell>
        <mxCell id="-aNVaNaORuces1c9qpF5-65" value="" style="endArrow=none;html=1;rounded=0;" edge="1" parent="1">
          <mxGeometry width="50" height="50" relative="1" as="geometry">
            <mxPoint x="1990" y="580" as="sourcePoint" />
            <mxPoint x="2130" y="580" as="targetPoint" />
          </mxGeometry>
        </mxCell>
        <mxCell id="-aNVaNaORuces1c9qpF5-66" value="" style="endArrow=none;html=1;rounded=0;exitX=0.5;exitY=0;exitDx=0;exitDy=0;" edge="1" parent="1" source="-aNVaNaORuces1c9qpF5-63">
          <mxGeometry width="50" height="50" relative="1" as="geometry">
            <mxPoint x="2110" y="660" as="sourcePoint" />
            <mxPoint x="1990" y="580" as="targetPoint" />
          </mxGeometry>
        </mxCell>
        <mxCell id="-aNVaNaORuces1c9qpF5-67" value="" style="endArrow=none;html=1;rounded=0;exitX=0.5;exitY=0;exitDx=0;exitDy=0;" edge="1" parent="1">
          <mxGeometry width="50" height="50" relative="1" as="geometry">
            <mxPoint x="2129.6" y="620" as="sourcePoint" />
            <mxPoint x="2129.6" y="580" as="targetPoint" />
          </mxGeometry>
        </mxCell>
        <mxCell id="-aNVaNaORuces1c9qpF5-68" value="" style="endArrow=none;html=1;rounded=0;exitX=0.5;exitY=0;exitDx=0;exitDy=0;" edge="1" parent="1" source="-aNVaNaORuces1c9qpF5-75">
          <mxGeometry width="50" height="50" relative="1" as="geometry">
            <mxPoint x="2690" y="480" as="sourcePoint" />
            <mxPoint x="2689" y="410" as="targetPoint" />
          </mxGeometry>
        </mxCell>
        <mxCell id="-aNVaNaORuces1c9qpF5-69" value="Tata Adila" style="whiteSpace=wrap;html=1;rounded=1;" vertex="1" parent="1">
          <mxGeometry x="2560" y="380" width="120" height="60" as="geometry" />
        </mxCell>
        <mxCell id="-aNVaNaORuces1c9qpF5-70" value="Tonton Abdelkrim" style="whiteSpace=wrap;html=1;rounded=1;" vertex="1" parent="1">
          <mxGeometry x="2700" y="380" width="120" height="60" as="geometry" />
        </mxCell>
        <mxCell id="-aNVaNaORuces1c9qpF5-71" value="" style="endArrow=none;html=1;rounded=0;exitX=1;exitY=0.5;exitDx=0;exitDy=0;entryX=0;entryY=0.5;entryDx=0;entryDy=0;" edge="1" parent="1" source="-aNVaNaORuces1c9qpF5-69" target="-aNVaNaORuces1c9qpF5-70">
          <mxGeometry width="50" height="50" relative="1" as="geometry">
            <mxPoint x="2670" y="540" as="sourcePoint" />
            <mxPoint x="2740" y="470" as="targetPoint" />
          </mxGeometry>
        </mxCell>
        <mxCell id="-aNVaNaORuces1c9qpF5-72" value="Nabila" style="whiteSpace=wrap;html=1;rounded=1;" vertex="1" parent="1">
          <mxGeometry x="2350" y="500" width="120" height="60" as="geometry" />
        </mxCell>
        <mxCell id="-aNVaNaORuces1c9qpF5-73" value="Hamo" style="whiteSpace=wrap;html=1;rounded=1;" vertex="1" parent="1">
          <mxGeometry x="2490" y="500" width="120" height="60" as="geometry" />
        </mxCell>
        <mxCell id="-aNVaNaORuces1c9qpF5-74" value="" style="endArrow=none;html=1;rounded=0;exitX=1;exitY=0.5;exitDx=0;exitDy=0;entryX=0;entryY=0.5;entryDx=0;entryDy=0;" edge="1" parent="1" source="-aNVaNaORuces1c9qpF5-72" target="-aNVaNaORuces1c9qpF5-73">
          <mxGeometry width="50" height="50" relative="1" as="geometry">
            <mxPoint x="2460" y="660" as="sourcePoint" />
            <mxPoint x="2530" y="590" as="targetPoint" />
          </mxGeometry>
        </mxCell>
        <mxCell id="-aNVaNaORuces1c9qpF5-75" value="Lounis" style="whiteSpace=wrap;html=1;rounded=1;" vertex="1" parent="1">
          <mxGeometry x="2630" y="500" width="120" height="60" as="geometry" />
        </mxCell>
        <mxCell id="-aNVaNaORuces1c9qpF5-76" value="" style="endArrow=none;html=1;rounded=0;exitX=0.5;exitY=0;exitDx=0;exitDy=0;" edge="1" parent="1">
          <mxGeometry width="50" height="50" relative="1" as="geometry">
            <mxPoint x="2549.23" y="500" as="sourcePoint" />
            <mxPoint x="2549.23" y="480" as="targetPoint" />
          </mxGeometry>
        </mxCell>
        <mxCell id="-aNVaNaORuces1c9qpF5-77" value="" style="endArrow=none;html=1;rounded=0;" edge="1" parent="1">
          <mxGeometry width="50" height="50" relative="1" as="geometry">
            <mxPoint x="2550" y="480" as="sourcePoint" />
            <mxPoint x="2830" y="480" as="targetPoint" />
          </mxGeometry>
        </mxCell>
        <mxCell id="-aNVaNaORuces1c9qpF5-78" value="Amin" style="whiteSpace=wrap;html=1;rounded=1;" vertex="1" parent="1">
          <mxGeometry x="2770" y="500" width="120" height="60" as="geometry" />
        </mxCell>
        <mxCell id="-aNVaNaORuces1c9qpF5-79" value="" style="endArrow=none;html=1;rounded=0;exitX=0.5;exitY=0;exitDx=0;exitDy=0;" edge="1" parent="1">
          <mxGeometry width="50" height="50" relative="1" as="geometry">
            <mxPoint x="2832" y="500" as="sourcePoint" />
            <mxPoint x="2832" y="480" as="targetPoint" />
          </mxGeometry>
        </mxCell>
        <mxCell id="-aNVaNaORuces1c9qpF5-80" value="" style="endArrow=none;html=1;rounded=0;" edge="1" parent="1">
          <mxGeometry width="50" height="50" relative="1" as="geometry">
            <mxPoint x="1861" y="360" as="sourcePoint" />
            <mxPoint x="1860" y="290" as="targetPoint" />
          </mxGeometry>
        </mxCell>
        <mxCell id="-aNVaNaORuces1c9qpF5-81" value="" style="endArrow=none;html=1;rounded=0;" edge="1" parent="1">
          <mxGeometry width="50" height="50" relative="1" as="geometry">
            <mxPoint x="2620" y="360" as="sourcePoint" />
            <mxPoint x="1140" y="360" as="targetPoint" />
          </mxGeometry>
        </mxCell>
        <mxCell id="-aNVaNaORuces1c9qpF5-82" value="" style="endArrow=none;html=1;rounded=0;exitX=0.5;exitY=0;exitDx=0;exitDy=0;" edge="1" parent="1">
          <mxGeometry width="50" height="50" relative="1" as="geometry">
            <mxPoint x="1140" y="380" as="sourcePoint" />
            <mxPoint x="1140" y="360" as="targetPoint" />
          </mxGeometry>
        </mxCell>
        <mxCell id="-aNVaNaORuces1c9qpF5-83" value="" style="endArrow=none;html=1;rounded=0;exitX=0.5;exitY=0;exitDx=0;exitDy=0;" edge="1" parent="1">
          <mxGeometry width="50" height="50" relative="1" as="geometry">
            <mxPoint x="2129.23" y="380" as="sourcePoint" />
            <mxPoint x="2129.23" y="360" as="targetPoint" />
          </mxGeometry>
        </mxCell>
        <mxCell id="-aNVaNaORuces1c9qpF5-84" value="" style="endArrow=none;html=1;rounded=0;exitX=0.5;exitY=0;exitDx=0;exitDy=0;" edge="1" parent="1">
          <mxGeometry width="50" height="50" relative="1" as="geometry">
            <mxPoint x="2619.23" y="380" as="sourcePoint" />
            <mxPoint x="2619.23" y="360" as="targetPoint" />
          </mxGeometry>
        </mxCell>
        <mxCell id="-aNVaNaORuces1c9qpF5-85" value="Ima-Fatima (Fatima)" style="whiteSpace=wrap;html=1;rounded=1;" vertex="1" parent="1">
          <mxGeometry x="1730" y="260" width="120" height="60" as="geometry" />
        </mxCell>
        <mxCell id="-aNVaNaORuces1c9qpF5-86" value="Grand-Père (Sadik)" style="whiteSpace=wrap;html=1;rounded=1;strokeColor=light-dark(#000000,#FF0000);" vertex="1" parent="1">
          <mxGeometry x="1870" y="260" width="120" height="60" as="geometry" />
        </mxCell>
        <mxCell id="-aNVaNaORuces1c9qpF5-87" value="" style="endArrow=none;html=1;rounded=0;exitX=1;exitY=0.5;exitDx=0;exitDy=0;entryX=0;entryY=0.5;entryDx=0;entryDy=0;" edge="1" parent="1" source="-aNVaNaORuces1c9qpF5-85" target="-aNVaNaORuces1c9qpF5-86">
          <mxGeometry width="50" height="50" relative="1" as="geometry">
            <mxPoint x="1840" y="420" as="sourcePoint" />
            <mxPoint x="1910" y="350" as="targetPoint" />
          </mxGeometry>
        </mxCell>
        <mxCell id="-aNVaNaORuces1c9qpF5-88" value="" style="endArrow=none;html=1;rounded=0;" edge="1" parent="1">
          <mxGeometry width="50" height="50" relative="1" as="geometry">
            <mxPoint x="3039" y="460" as="sourcePoint" />
            <mxPoint x="3039" y="410" as="targetPoint" />
          </mxGeometry>
        </mxCell>
        <mxCell id="-aNVaNaORuces1c9qpF5-89" value="Tata Damia" style="whiteSpace=wrap;html=1;rounded=1;" vertex="1" parent="1">
          <mxGeometry x="2910" y="380" width="120" height="60" as="geometry" />
        </mxCell>
        <mxCell id="-aNVaNaORuces1c9qpF5-90" value="Tonton ???" style="whiteSpace=wrap;html=1;rounded=1;" vertex="1" parent="1">
          <mxGeometry x="3050" y="380" width="120" height="60" as="geometry" />
        </mxCell>
        <mxCell id="-aNVaNaORuces1c9qpF5-91" value="" style="endArrow=none;html=1;rounded=0;exitX=1;exitY=0.5;exitDx=0;exitDy=0;entryX=0;entryY=0.5;entryDx=0;entryDy=0;" edge="1" parent="1" source="-aNVaNaORuces1c9qpF5-89" target="-aNVaNaORuces1c9qpF5-90">
          <mxGeometry width="50" height="50" relative="1" as="geometry">
            <mxPoint x="3020" y="540" as="sourcePoint" />
            <mxPoint x="3090" y="470" as="targetPoint" />
          </mxGeometry>
        </mxCell>
        <mxCell id="-aNVaNaORuces1c9qpF5-92" value="Anaïs" style="rounded=1;whiteSpace=wrap;html=1;" vertex="1" parent="1">
          <mxGeometry x="2910" y="500" width="120" height="60" as="geometry" />
        </mxCell>
        <mxCell id="-aNVaNaORuces1c9qpF5-93" value="Anièce" style="rounded=1;whiteSpace=wrap;html=1;" vertex="1" parent="1">
          <mxGeometry x="3050" y="500" width="120" height="60" as="geometry" />
        </mxCell>
        <mxCell id="-aNVaNaORuces1c9qpF5-94" value="" style="endArrow=none;html=1;rounded=0;" edge="1" parent="1">
          <mxGeometry width="50" height="50" relative="1" as="geometry">
            <mxPoint x="2970" y="460" as="sourcePoint" />
            <mxPoint x="3110" y="460" as="targetPoint" />
          </mxGeometry>
        </mxCell>
        <mxCell id="-aNVaNaORuces1c9qpF5-95" value="" style="endArrow=none;html=1;rounded=0;exitX=0.5;exitY=0;exitDx=0;exitDy=0;" edge="1" parent="1" source="-aNVaNaORuces1c9qpF5-92">
          <mxGeometry width="50" height="50" relative="1" as="geometry">
            <mxPoint x="3090" y="540" as="sourcePoint" />
            <mxPoint x="2970" y="460" as="targetPoint" />
          </mxGeometry>
        </mxCell>
        <mxCell id="-aNVaNaORuces1c9qpF5-96" value="" style="endArrow=none;html=1;rounded=0;exitX=0.5;exitY=0;exitDx=0;exitDy=0;" edge="1" parent="1">
          <mxGeometry width="50" height="50" relative="1" as="geometry">
            <mxPoint x="3109.6" y="500" as="sourcePoint" />
            <mxPoint x="3109.6" y="460" as="targetPoint" />
          </mxGeometry>
        </mxCell>
        <mxCell id="-aNVaNaORuces1c9qpF5-97" value="" style="endArrow=none;html=1;rounded=0;" edge="1" parent="1">
          <mxGeometry width="50" height="50" relative="1" as="geometry">
            <mxPoint x="3319" y="460" as="sourcePoint" />
            <mxPoint x="3319" y="410" as="targetPoint" />
          </mxGeometry>
        </mxCell>
        <mxCell id="-aNVaNaORuces1c9qpF5-98" value="Tata Katia" style="whiteSpace=wrap;html=1;rounded=1;" vertex="1" parent="1">
          <mxGeometry x="3190" y="380" width="120" height="60" as="geometry" />
        </mxCell>
        <mxCell id="-aNVaNaORuces1c9qpF5-99" value="Tonton ???" style="whiteSpace=wrap;html=1;rounded=1;" vertex="1" parent="1">
          <mxGeometry x="3330" y="380" width="120" height="60" as="geometry" />
        </mxCell>
        <mxCell id="-aNVaNaORuces1c9qpF5-100" value="" style="endArrow=none;html=1;rounded=0;exitX=1;exitY=0.5;exitDx=0;exitDy=0;entryX=0;entryY=0.5;entryDx=0;entryDy=0;" edge="1" parent="1" source="-aNVaNaORuces1c9qpF5-98" target="-aNVaNaORuces1c9qpF5-99">
          <mxGeometry width="50" height="50" relative="1" as="geometry">
            <mxPoint x="3300" y="540" as="sourcePoint" />
            <mxPoint x="3370" y="470" as="targetPoint" />
          </mxGeometry>
        </mxCell>
        <mxCell id="-aNVaNaORuces1c9qpF5-101" value="Lyes" style="rounded=1;whiteSpace=wrap;html=1;" vertex="1" parent="1">
          <mxGeometry x="3190" y="500" width="120" height="60" as="geometry" />
        </mxCell>
        <mxCell id="-aNVaNaORuces1c9qpF5-102" value="Sirem" style="rounded=1;whiteSpace=wrap;html=1;" vertex="1" parent="1">
          <mxGeometry x="3330" y="500" width="120" height="60" as="geometry" />
        </mxCell>
        <mxCell id="-aNVaNaORuces1c9qpF5-103" value="" style="endArrow=none;html=1;rounded=0;" edge="1" parent="1">
          <mxGeometry width="50" height="50" relative="1" as="geometry">
            <mxPoint x="3250" y="460" as="sourcePoint" />
            <mxPoint x="3390" y="460" as="targetPoint" />
          </mxGeometry>
        </mxCell>
        <mxCell id="-aNVaNaORuces1c9qpF5-104" value="" style="endArrow=none;html=1;rounded=0;exitX=0.5;exitY=0;exitDx=0;exitDy=0;" edge="1" parent="1" source="-aNVaNaORuces1c9qpF5-101">
          <mxGeometry width="50" height="50" relative="1" as="geometry">
            <mxPoint x="3370" y="540" as="sourcePoint" />
            <mxPoint x="3250" y="460" as="targetPoint" />
          </mxGeometry>
        </mxCell>
        <mxCell id="-aNVaNaORuces1c9qpF5-105" value="" style="endArrow=none;html=1;rounded=0;exitX=0.5;exitY=0;exitDx=0;exitDy=0;" edge="1" parent="1">
          <mxGeometry width="50" height="50" relative="1" as="geometry">
            <mxPoint x="3389.6" y="500" as="sourcePoint" />
            <mxPoint x="3389.6" y="460" as="targetPoint" />
          </mxGeometry>
        </mxCell>
        <mxCell id="-aNVaNaORuces1c9qpF5-106" value="" style="endArrow=none;html=1;rounded=0;" edge="1" parent="1">
          <mxGeometry width="50" height="50" relative="1" as="geometry">
            <mxPoint x="3599" y="460" as="sourcePoint" />
            <mxPoint x="3599" y="410" as="targetPoint" />
          </mxGeometry>
        </mxCell>
        <mxCell id="-aNVaNaORuces1c9qpF5-107" value="Tonton Salas" style="whiteSpace=wrap;html=1;rounded=1;" vertex="1" parent="1">
          <mxGeometry x="3470" y="380" width="120" height="60" as="geometry" />
        </mxCell>
        <mxCell id="-aNVaNaORuces1c9qpF5-108" value="Tata ???" style="whiteSpace=wrap;html=1;rounded=1;" vertex="1" parent="1">
          <mxGeometry x="3610" y="380" width="120" height="60" as="geometry" />
        </mxCell>
        <mxCell id="-aNVaNaORuces1c9qpF5-109" value="" style="endArrow=none;html=1;rounded=0;exitX=1;exitY=0.5;exitDx=0;exitDy=0;entryX=0;entryY=0.5;entryDx=0;entryDy=0;" edge="1" parent="1" source="-aNVaNaORuces1c9qpF5-107" target="-aNVaNaORuces1c9qpF5-108">
          <mxGeometry width="50" height="50" relative="1" as="geometry">
            <mxPoint x="3580" y="540" as="sourcePoint" />
            <mxPoint x="3650" y="470" as="targetPoint" />
          </mxGeometry>
        </mxCell>
        <mxCell id="-aNVaNaORuces1c9qpF5-110" value="Ilan" style="rounded=1;whiteSpace=wrap;html=1;" vertex="1" parent="1">
          <mxGeometry x="3470" y="500" width="120" height="60" as="geometry" />
        </mxCell>
        <mxCell id="-aNVaNaORuces1c9qpF5-111" value="???" style="rounded=1;whiteSpace=wrap;html=1;" vertex="1" parent="1">
          <mxGeometry x="3610" y="500" width="120" height="60" as="geometry" />
        </mxCell>
        <mxCell id="-aNVaNaORuces1c9qpF5-112" value="" style="endArrow=none;html=1;rounded=0;" edge="1" parent="1">
          <mxGeometry width="50" height="50" relative="1" as="geometry">
            <mxPoint x="3530" y="460" as="sourcePoint" />
            <mxPoint x="3670" y="460" as="targetPoint" />
          </mxGeometry>
        </mxCell>
        <mxCell id="-aNVaNaORuces1c9qpF5-113" value="" style="endArrow=none;html=1;rounded=0;exitX=0.5;exitY=0;exitDx=0;exitDy=0;" edge="1" parent="1" source="-aNVaNaORuces1c9qpF5-110">
          <mxGeometry width="50" height="50" relative="1" as="geometry">
            <mxPoint x="3650" y="540" as="sourcePoint" />
            <mxPoint x="3530" y="460" as="targetPoint" />
          </mxGeometry>
        </mxCell>
        <mxCell id="-aNVaNaORuces1c9qpF5-114" value="" style="endArrow=none;html=1;rounded=0;exitX=0.5;exitY=0;exitDx=0;exitDy=0;" edge="1" parent="1">
          <mxGeometry width="50" height="50" relative="1" as="geometry">
            <mxPoint x="3669.6" y="500" as="sourcePoint" />
            <mxPoint x="3669.6" y="460" as="targetPoint" />
          </mxGeometry>
        </mxCell>
        <mxCell id="-aNVaNaORuces1c9qpF5-115" value="" style="endArrow=none;html=1;rounded=0;exitX=0.5;exitY=0;exitDx=0;exitDy=0;" edge="1" parent="1" source="-aNVaNaORuces1c9qpF5-120">
          <mxGeometry width="50" height="50" relative="1" as="geometry">
            <mxPoint x="3950" y="480" as="sourcePoint" />
            <mxPoint x="3949" y="410" as="targetPoint" />
          </mxGeometry>
        </mxCell>
        <mxCell id="-aNVaNaORuces1c9qpF5-116" value="Tata ???" style="whiteSpace=wrap;html=1;rounded=1;" vertex="1" parent="1">
          <mxGeometry x="3820" y="380" width="120" height="60" as="geometry" />
        </mxCell>
        <mxCell id="-aNVaNaORuces1c9qpF5-117" value="Tonton Boucli" style="whiteSpace=wrap;html=1;rounded=1;" vertex="1" parent="1">
          <mxGeometry x="3960" y="380" width="120" height="60" as="geometry" />
        </mxCell>
        <mxCell id="-aNVaNaORuces1c9qpF5-118" value="" style="endArrow=none;html=1;rounded=0;exitX=1;exitY=0.5;exitDx=0;exitDy=0;entryX=0;entryY=0.5;entryDx=0;entryDy=0;" edge="1" parent="1" source="-aNVaNaORuces1c9qpF5-116" target="-aNVaNaORuces1c9qpF5-117">
          <mxGeometry width="50" height="50" relative="1" as="geometry">
            <mxPoint x="3930" y="540" as="sourcePoint" />
            <mxPoint x="4000" y="470" as="targetPoint" />
          </mxGeometry>
        </mxCell>
        <mxCell id="-aNVaNaORuces1c9qpF5-119" value="???" style="whiteSpace=wrap;html=1;rounded=1;" vertex="1" parent="1">
          <mxGeometry x="3750" y="500" width="120" height="60" as="geometry" />
        </mxCell>
        <mxCell id="-aNVaNaORuces1c9qpF5-120" value="???" style="whiteSpace=wrap;html=1;rounded=1;" vertex="1" parent="1">
          <mxGeometry x="3890" y="500" width="120" height="60" as="geometry" />
        </mxCell>
        <mxCell id="-aNVaNaORuces1c9qpF5-121" value="" style="endArrow=none;html=1;rounded=0;exitX=0.5;exitY=0;exitDx=0;exitDy=0;" edge="1" parent="1">
          <mxGeometry width="50" height="50" relative="1" as="geometry">
            <mxPoint x="3809.2299999999996" y="500" as="sourcePoint" />
            <mxPoint x="3809.2299999999996" y="480" as="targetPoint" />
          </mxGeometry>
        </mxCell>
        <mxCell id="-aNVaNaORuces1c9qpF5-122" value="" style="endArrow=none;html=1;rounded=0;" edge="1" parent="1">
          <mxGeometry width="50" height="50" relative="1" as="geometry">
            <mxPoint x="3950" y="480" as="sourcePoint" />
            <mxPoint x="4090" y="480" as="targetPoint" />
          </mxGeometry>
        </mxCell>
        <mxCell id="-aNVaNaORuces1c9qpF5-123" value="Izm-Aïden" style="whiteSpace=wrap;html=1;rounded=1;" vertex="1" parent="1">
          <mxGeometry x="4030" y="500" width="120" height="60" as="geometry" />
        </mxCell>
        <mxCell id="-aNVaNaORuces1c9qpF5-124" value="" style="endArrow=none;html=1;rounded=0;exitX=0.5;exitY=0;exitDx=0;exitDy=0;" edge="1" parent="1">
          <mxGeometry width="50" height="50" relative="1" as="geometry">
            <mxPoint x="4092" y="500" as="sourcePoint" />
            <mxPoint x="4092" y="480" as="targetPoint" />
          </mxGeometry>
        </mxCell>
        <mxCell id="-aNVaNaORuces1c9qpF5-125" value="" style="endArrow=none;html=1;rounded=0;exitX=0.5;exitY=0;exitDx=0;exitDy=0;" edge="1" parent="1" source="-aNVaNaORuces1c9qpF5-130">
          <mxGeometry width="50" height="50" relative="1" as="geometry">
            <mxPoint x="4370" y="480" as="sourcePoint" />
            <mxPoint x="4369" y="410" as="targetPoint" />
          </mxGeometry>
        </mxCell>
        <mxCell id="-aNVaNaORuces1c9qpF5-126" value="Tata ???" style="whiteSpace=wrap;html=1;rounded=1;" vertex="1" parent="1">
          <mxGeometry x="4240" y="380" width="120" height="60" as="geometry" />
        </mxCell>
        <mxCell id="-aNVaNaORuces1c9qpF5-127" value="Tonton Mazigh" style="whiteSpace=wrap;html=1;rounded=1;" vertex="1" parent="1">
          <mxGeometry x="4380" y="380" width="120" height="60" as="geometry" />
        </mxCell>
        <mxCell id="-aNVaNaORuces1c9qpF5-128" value="" style="endArrow=none;html=1;rounded=0;exitX=1;exitY=0.5;exitDx=0;exitDy=0;entryX=0;entryY=0.5;entryDx=0;entryDy=0;" edge="1" parent="1" source="-aNVaNaORuces1c9qpF5-126" target="-aNVaNaORuces1c9qpF5-127">
          <mxGeometry width="50" height="50" relative="1" as="geometry">
            <mxPoint x="4350" y="540" as="sourcePoint" />
            <mxPoint x="4420" y="470" as="targetPoint" />
          </mxGeometry>
        </mxCell>
        <mxCell id="-aNVaNaORuces1c9qpF5-129" value="Maëlys" style="whiteSpace=wrap;html=1;rounded=1;" vertex="1" parent="1">
          <mxGeometry x="4170" y="500" width="120" height="60" as="geometry" />
        </mxCell>
        <mxCell id="-aNVaNaORuces1c9qpF5-130" value="Mathis" style="whiteSpace=wrap;html=1;rounded=1;" vertex="1" parent="1">
          <mxGeometry x="4310" y="500" width="120" height="60" as="geometry" />
        </mxCell>
        <mxCell id="-aNVaNaORuces1c9qpF5-131" value="" style="endArrow=none;html=1;rounded=0;exitX=0.5;exitY=0;exitDx=0;exitDy=0;" edge="1" parent="1">
          <mxGeometry width="50" height="50" relative="1" as="geometry">
            <mxPoint x="4229.23" y="500" as="sourcePoint" />
            <mxPoint x="4229.23" y="480" as="targetPoint" />
          </mxGeometry>
        </mxCell>
        <mxCell id="-aNVaNaORuces1c9qpF5-132" value="" style="endArrow=none;html=1;rounded=0;" edge="1" parent="1">
          <mxGeometry width="50" height="50" relative="1" as="geometry">
            <mxPoint x="4230" y="480" as="sourcePoint" />
            <mxPoint x="4510" y="480" as="targetPoint" />
          </mxGeometry>
        </mxCell>
        <mxCell id="-aNVaNaORuces1c9qpF5-133" value="Liam" style="whiteSpace=wrap;html=1;rounded=1;" vertex="1" parent="1">
          <mxGeometry x="4450" y="500" width="120" height="60" as="geometry" />
        </mxCell>
        <mxCell id="-aNVaNaORuces1c9qpF5-134" value="" style="endArrow=none;html=1;rounded=0;exitX=0.5;exitY=0;exitDx=0;exitDy=0;" edge="1" parent="1">
          <mxGeometry width="50" height="50" relative="1" as="geometry">
            <mxPoint x="4512" y="500" as="sourcePoint" />
            <mxPoint x="4512" y="480" as="targetPoint" />
          </mxGeometry>
        </mxCell>
        <mxCell id="-aNVaNaORuces1c9qpF5-135" value="" style="endArrow=none;html=1;rounded=0;" edge="1" parent="1">
          <mxGeometry width="50" height="50" relative="1" as="geometry">
            <mxPoint x="3810" y="480" as="sourcePoint" />
            <mxPoint x="3880" y="480" as="targetPoint" />
          </mxGeometry>
        </mxCell>
        <mxCell id="-aNVaNaORuces1c9qpF5-136" value="" style="endArrow=none;html=1;rounded=0;" edge="1" parent="1">
          <mxGeometry width="50" height="50" relative="1" as="geometry">
            <mxPoint x="3880" y="480" as="sourcePoint" />
            <mxPoint x="3879.5" y="440" as="targetPoint" />
          </mxGeometry>
        </mxCell>
        <mxCell id="-aNVaNaORuces1c9qpF5-137" value="" style="endArrow=none;html=1;rounded=0;" edge="1" parent="1">
          <mxGeometry width="50" height="50" relative="1" as="geometry">
            <mxPoint x="4719" y="460" as="sourcePoint" />
            <mxPoint x="4719" y="410" as="targetPoint" />
          </mxGeometry>
        </mxCell>
        <mxCell id="-aNVaNaORuces1c9qpF5-138" value="Tonton ???" style="whiteSpace=wrap;html=1;rounded=1;" vertex="1" parent="1">
          <mxGeometry x="4590" y="380" width="120" height="60" as="geometry" />
        </mxCell>
        <mxCell id="-aNVaNaORuces1c9qpF5-139" value="Tata Lidya" style="whiteSpace=wrap;html=1;rounded=1;" vertex="1" parent="1">
          <mxGeometry x="4730" y="380" width="120" height="60" as="geometry" />
        </mxCell>
        <mxCell id="-aNVaNaORuces1c9qpF5-140" value="" style="endArrow=none;html=1;rounded=0;exitX=1;exitY=0.5;exitDx=0;exitDy=0;entryX=0;entryY=0.5;entryDx=0;entryDy=0;" edge="1" parent="1" source="-aNVaNaORuces1c9qpF5-138" target="-aNVaNaORuces1c9qpF5-139">
          <mxGeometry width="50" height="50" relative="1" as="geometry">
            <mxPoint x="4700" y="540" as="sourcePoint" />
            <mxPoint x="4770" y="470" as="targetPoint" />
          </mxGeometry>
        </mxCell>
        <mxCell id="-aNVaNaORuces1c9qpF5-141" value="Alas" style="rounded=1;whiteSpace=wrap;html=1;" vertex="1" parent="1">
          <mxGeometry x="4590" y="500" width="120" height="60" as="geometry" />
        </mxCell>
        <mxCell id="-aNVaNaORuces1c9qpF5-142" value="Lina" style="rounded=1;whiteSpace=wrap;html=1;" vertex="1" parent="1">
          <mxGeometry x="4730" y="500" width="120" height="60" as="geometry" />
        </mxCell>
        <mxCell id="-aNVaNaORuces1c9qpF5-143" value="" style="endArrow=none;html=1;rounded=0;" edge="1" parent="1">
          <mxGeometry width="50" height="50" relative="1" as="geometry">
            <mxPoint x="4650" y="460" as="sourcePoint" />
            <mxPoint x="4790" y="460" as="targetPoint" />
          </mxGeometry>
        </mxCell>
        <mxCell id="-aNVaNaORuces1c9qpF5-144" value="" style="endArrow=none;html=1;rounded=0;exitX=0.5;exitY=0;exitDx=0;exitDy=0;" edge="1" parent="1" source="-aNVaNaORuces1c9qpF5-141">
          <mxGeometry width="50" height="50" relative="1" as="geometry">
            <mxPoint x="4770" y="540" as="sourcePoint" />
            <mxPoint x="4650" y="460" as="targetPoint" />
          </mxGeometry>
        </mxCell>
        <mxCell id="-aNVaNaORuces1c9qpF5-145" value="" style="endArrow=none;html=1;rounded=0;exitX=0.5;exitY=0;exitDx=0;exitDy=0;" edge="1" parent="1">
          <mxGeometry width="50" height="50" relative="1" as="geometry">
            <mxPoint x="4789.6" y="500" as="sourcePoint" />
            <mxPoint x="4789.6" y="460" as="targetPoint" />
          </mxGeometry>
        </mxCell>
        <mxCell id="-aNVaNaORuces1c9qpF5-146" value="" style="endArrow=none;html=1;rounded=0;exitX=0.5;exitY=0;exitDx=0;exitDy=0;" edge="1" parent="1" source="-aNVaNaORuces1c9qpF5-150">
          <mxGeometry width="50" height="50" relative="1" as="geometry">
            <mxPoint x="5000" y="480" as="sourcePoint" />
            <mxPoint x="4999" y="410" as="targetPoint" />
          </mxGeometry>
        </mxCell>
        <mxCell id="-aNVaNaORuces1c9qpF5-147" value="???" style="whiteSpace=wrap;html=1;rounded=1;" vertex="1" parent="1">
          <mxGeometry x="4870" y="380" width="120" height="60" as="geometry" />
        </mxCell>
        <mxCell id="-aNVaNaORuces1c9qpF5-148" value="Idir" style="whiteSpace=wrap;html=1;rounded=1;" vertex="1" parent="1">
          <mxGeometry x="5010" y="380" width="120" height="60" as="geometry" />
        </mxCell>
        <mxCell id="-aNVaNaORuces1c9qpF5-149" value="" style="endArrow=none;html=1;rounded=0;exitX=1;exitY=0.5;exitDx=0;exitDy=0;entryX=0;entryY=0.5;entryDx=0;entryDy=0;" edge="1" parent="1" source="-aNVaNaORuces1c9qpF5-147" target="-aNVaNaORuces1c9qpF5-148">
          <mxGeometry width="50" height="50" relative="1" as="geometry">
            <mxPoint x="4980" y="540" as="sourcePoint" />
            <mxPoint x="5050" y="470" as="targetPoint" />
          </mxGeometry>
        </mxCell>
        <mxCell id="-aNVaNaORuces1c9qpF5-150" value="???" style="whiteSpace=wrap;html=1;rounded=1;" vertex="1" parent="1">
          <mxGeometry x="4940" y="500" width="120" height="60" as="geometry" />
        </mxCell>
        <mxCell id="-aNVaNaORuces1c9qpF5-151" value="???" style="whiteSpace=wrap;html=1;rounded=1;" vertex="1" parent="1">
          <mxGeometry x="5150" y="380" width="120" height="60" as="geometry" />
        </mxCell>
        <mxCell id="-aNVaNaORuces1c9qpF5-152" value="Rhiles" style="whiteSpace=wrap;html=1;rounded=1;" vertex="1" parent="1">
          <mxGeometry x="5290" y="380" width="120" height="60" as="geometry" />
        </mxCell>
        <mxCell id="-aNVaNaORuces1c9qpF5-153" value="" style="endArrow=none;html=1;rounded=0;exitX=1;exitY=0.5;exitDx=0;exitDy=0;entryX=0;entryY=0.5;entryDx=0;entryDy=0;" edge="1" parent="1" source="-aNVaNaORuces1c9qpF5-151" target="-aNVaNaORuces1c9qpF5-152">
          <mxGeometry width="50" height="50" relative="1" as="geometry">
            <mxPoint x="5260" y="540" as="sourcePoint" />
            <mxPoint x="5330" y="470" as="targetPoint" />
          </mxGeometry>
        </mxCell>
        <mxCell id="-aNVaNaORuces1c9qpF5-154" value="" style="endArrow=none;html=1;rounded=0;" edge="1" parent="1">
          <mxGeometry width="50" height="50" relative="1" as="geometry">
            <mxPoint x="2970" y="360" as="sourcePoint" />
            <mxPoint x="5350" y="360" as="targetPoint" />
          </mxGeometry>
        </mxCell>
        <mxCell id="-aNVaNaORuces1c9qpF5-155" value="" style="endArrow=none;html=1;rounded=0;exitX=0.5;exitY=0;exitDx=0;exitDy=0;" edge="1" parent="1" source="-aNVaNaORuces1c9qpF5-152">
          <mxGeometry width="50" height="50" relative="1" as="geometry">
            <mxPoint x="5240" y="320" as="sourcePoint" />
            <mxPoint x="5350" y="360" as="targetPoint" />
          </mxGeometry>
        </mxCell>
        <mxCell id="-aNVaNaORuces1c9qpF5-156" value="" style="endArrow=none;html=1;rounded=0;exitX=0.5;exitY=0;exitDx=0;exitDy=0;" edge="1" parent="1">
          <mxGeometry width="50" height="50" relative="1" as="geometry">
            <mxPoint x="5075" y="380" as="sourcePoint" />
            <mxPoint x="5075" y="360" as="targetPoint" />
          </mxGeometry>
        </mxCell>
        <mxCell id="-aNVaNaORuces1c9qpF5-157" value="" style="endArrow=none;html=1;rounded=0;exitX=0.5;exitY=0;exitDx=0;exitDy=0;" edge="1" parent="1">
          <mxGeometry width="50" height="50" relative="1" as="geometry">
            <mxPoint x="4789.5" y="380" as="sourcePoint" />
            <mxPoint x="4789.5" y="360" as="targetPoint" />
          </mxGeometry>
        </mxCell>
        <mxCell id="-aNVaNaORuces1c9qpF5-158" value="" style="endArrow=none;html=1;rounded=0;exitX=0.5;exitY=0;exitDx=0;exitDy=0;" edge="1" parent="1">
          <mxGeometry width="50" height="50" relative="1" as="geometry">
            <mxPoint x="4439.5" y="380" as="sourcePoint" />
            <mxPoint x="4439.5" y="360" as="targetPoint" />
          </mxGeometry>
        </mxCell>
        <mxCell id="-aNVaNaORuces1c9qpF5-159" value="" style="endArrow=none;html=1;rounded=0;exitX=0.5;exitY=0;exitDx=0;exitDy=0;" edge="1" parent="1">
          <mxGeometry width="50" height="50" relative="1" as="geometry">
            <mxPoint x="4019.5" y="380" as="sourcePoint" />
            <mxPoint x="4019.5" y="360" as="targetPoint" />
          </mxGeometry>
        </mxCell>
        <mxCell id="-aNVaNaORuces1c9qpF5-160" value="" style="endArrow=none;html=1;rounded=0;exitX=0.5;exitY=0;exitDx=0;exitDy=0;" edge="1" parent="1">
          <mxGeometry width="50" height="50" relative="1" as="geometry">
            <mxPoint x="3529.5" y="380" as="sourcePoint" />
            <mxPoint x="3529.5" y="360" as="targetPoint" />
          </mxGeometry>
        </mxCell>
        <mxCell id="-aNVaNaORuces1c9qpF5-161" value="" style="endArrow=none;html=1;rounded=0;exitX=0.5;exitY=0;exitDx=0;exitDy=0;" edge="1" parent="1">
          <mxGeometry width="50" height="50" relative="1" as="geometry">
            <mxPoint x="2969.5" y="380" as="sourcePoint" />
            <mxPoint x="2969.5" y="360" as="targetPoint" />
          </mxGeometry>
        </mxCell>
        <mxCell id="-aNVaNaORuces1c9qpF5-162" value="" style="endArrow=none;html=1;rounded=0;exitX=0.5;exitY=0;exitDx=0;exitDy=0;" edge="1" parent="1">
          <mxGeometry width="50" height="50" relative="1" as="geometry">
            <mxPoint x="3249.5" y="380" as="sourcePoint" />
            <mxPoint x="3249.5" y="360" as="targetPoint" />
          </mxGeometry>
        </mxCell>
        <mxCell id="-aNVaNaORuces1c9qpF5-163" value="" style="endArrow=none;html=1;rounded=0;" edge="1" parent="1">
          <mxGeometry width="50" height="50" relative="1" as="geometry">
            <mxPoint x="4261" y="360" as="sourcePoint" />
            <mxPoint x="4260" y="290" as="targetPoint" />
          </mxGeometry>
        </mxCell>
        <mxCell id="-aNVaNaORuces1c9qpF5-164" value="Nana Tousnia" style="whiteSpace=wrap;html=1;rounded=1;" vertex="1" parent="1">
          <mxGeometry x="4130" y="260" width="120" height="60" as="geometry" />
        </mxCell>
        <mxCell id="-aNVaNaORuces1c9qpF5-165" value="Dada Bouahlem" style="whiteSpace=wrap;html=1;rounded=1;" vertex="1" parent="1">
          <mxGeometry x="4270" y="260" width="120" height="60" as="geometry" />
        </mxCell>
        <mxCell id="-aNVaNaORuces1c9qpF5-166" value="" style="endArrow=none;html=1;rounded=0;exitX=1;exitY=0.5;exitDx=0;exitDy=0;entryX=0;entryY=0.5;entryDx=0;entryDy=0;" edge="1" parent="1" source="-aNVaNaORuces1c9qpF5-164" target="-aNVaNaORuces1c9qpF5-165">
          <mxGeometry width="50" height="50" relative="1" as="geometry">
            <mxPoint x="4240" y="420" as="sourcePoint" />
            <mxPoint x="4310" y="350" as="targetPoint" />
          </mxGeometry>
        </mxCell>
        <mxCell id="-aNVaNaORuces1c9qpF5-167" value="" style="endArrow=none;html=1;rounded=0;" edge="1" parent="1">
          <mxGeometry width="50" height="50" relative="1" as="geometry">
            <mxPoint x="1930" y="240" as="sourcePoint" />
            <mxPoint x="4330" y="240" as="targetPoint" />
          </mxGeometry>
        </mxCell>
        <mxCell id="-aNVaNaORuces1c9qpF5-168" value="" style="endArrow=none;html=1;rounded=0;exitX=0.5;exitY=0;exitDx=0;exitDy=0;" edge="1" parent="1">
          <mxGeometry width="50" height="50" relative="1" as="geometry">
            <mxPoint x="1929.44" y="260" as="sourcePoint" />
            <mxPoint x="1929.44" y="240" as="targetPoint" />
          </mxGeometry>
        </mxCell>
        <mxCell id="-aNVaNaORuces1c9qpF5-169" value="" style="endArrow=none;html=1;rounded=0;exitX=0.5;exitY=0;exitDx=0;exitDy=0;" edge="1" parent="1">
          <mxGeometry width="50" height="50" relative="1" as="geometry">
            <mxPoint x="4329.72" y="260" as="sourcePoint" />
            <mxPoint x="4329.72" y="240" as="targetPoint" />
          </mxGeometry>
        </mxCell>
        <mxCell id="-aNVaNaORuces1c9qpF5-170" value="" style="endArrow=none;html=1;rounded=0;exitX=0.5;exitY=0;exitDx=0;exitDy=0;" edge="1" parent="1">
          <mxGeometry width="50" height="50" relative="1" as="geometry">
            <mxPoint x="3090" y="240" as="sourcePoint" />
            <mxPoint x="3090" y="220" as="targetPoint" />
          </mxGeometry>
        </mxCell>
        <mxCell id="-aNVaNaORuces1c9qpF5-171" value="" style="endArrow=none;html=1;rounded=0;" edge="1" parent="1">
          <mxGeometry width="50" height="50" relative="1" as="geometry">
            <mxPoint x="3089" y="220" as="sourcePoint" />
            <mxPoint x="5489" y="220" as="targetPoint" />
          </mxGeometry>
        </mxCell>
        <mxCell id="-aNVaNaORuces1c9qpF5-172" value="???" style="whiteSpace=wrap;html=1;rounded=1;strokeColor=light-dark(#000000,#FF0000);" vertex="1" parent="1">
          <mxGeometry x="5360" y="130" width="120" height="60" as="geometry" />
        </mxCell>
        <mxCell id="-aNVaNaORuces1c9qpF5-173" value="???" style="whiteSpace=wrap;html=1;rounded=1;strokeColor=light-dark(#000000,#FF0000);" vertex="1" parent="1">
          <mxGeometry x="5500" y="130" width="120" height="60" as="geometry" />
        </mxCell>
        <mxCell id="-aNVaNaORuces1c9qpF5-174" value="" style="endArrow=none;html=1;rounded=0;exitX=1;exitY=0.5;exitDx=0;exitDy=0;entryX=0;entryY=0.5;entryDx=0;entryDy=0;" edge="1" parent="1" source="-aNVaNaORuces1c9qpF5-172" target="-aNVaNaORuces1c9qpF5-173">
          <mxGeometry width="50" height="50" relative="1" as="geometry">
            <mxPoint x="5470" y="290" as="sourcePoint" />
            <mxPoint x="5540" y="220" as="targetPoint" />
          </mxGeometry>
        </mxCell>
        <mxCell id="-aNVaNaORuces1c9qpF5-175" value="???" style="whiteSpace=wrap;html=1;rounded=1;strokeColor=light-dark(#000000,#FF0000);" vertex="1" parent="1">
          <mxGeometry x="5640" y="130" width="120" height="60" as="geometry" />
        </mxCell>
        <mxCell id="-aNVaNaORuces1c9qpF5-176" value="" style="endArrow=none;html=1;rounded=0;exitX=1;exitY=0.5;exitDx=0;exitDy=0;entryX=0;entryY=0.5;entryDx=0;entryDy=0;" edge="1" parent="1" target="-aNVaNaORuces1c9qpF5-175">
          <mxGeometry width="50" height="50" relative="1" as="geometry">
            <mxPoint x="5620" y="160" as="sourcePoint" />
            <mxPoint x="5680" y="220" as="targetPoint" />
          </mxGeometry>
        </mxCell>
        <mxCell id="-aNVaNaORuces1c9qpF5-177" value="" style="endArrow=none;html=1;rounded=0;" edge="1" parent="1">
          <mxGeometry width="50" height="50" relative="1" as="geometry">
            <mxPoint x="5490" y="220" as="sourcePoint" />
            <mxPoint x="5490" y="160" as="targetPoint" />
          </mxGeometry>
        </mxCell>
        <mxCell id="-aNVaNaORuces1c9qpF5-178" value="" style="endArrow=none;html=1;rounded=0;exitX=0.5;exitY=0;exitDx=0;exitDy=0;" edge="1" parent="1" source="-aNVaNaORuces1c9qpF5-180">
          <mxGeometry width="50" height="50" relative="1" as="geometry">
            <mxPoint x="5630" y="220" as="sourcePoint" />
            <mxPoint x="5630" y="160" as="targetPoint" />
          </mxGeometry>
        </mxCell>
        <mxCell id="-aNVaNaORuces1c9qpF5-179" value="???" style="whiteSpace=wrap;html=1;rounded=1;strokeColor=light-dark(#000000,#FF0000);" vertex="1" parent="1">
          <mxGeometry x="5430" y="260" width="120" height="60" as="geometry" />
        </mxCell>
        <mxCell id="-aNVaNaORuces1c9qpF5-180" value="???" style="whiteSpace=wrap;html=1;rounded=1;strokeColor=light-dark(#000000,#FF0000);" vertex="1" parent="1">
          <mxGeometry x="5570" y="260" width="120" height="60" as="geometry" />
        </mxCell>
        <mxCell id="-aNVaNaORuces1c9qpF5-181" value="" style="endArrow=none;html=1;rounded=0;exitX=1;exitY=0.5;exitDx=0;exitDy=0;entryX=0;entryY=0.5;entryDx=0;entryDy=0;" edge="1" parent="1" source="-aNVaNaORuces1c9qpF5-179" target="-aNVaNaORuces1c9qpF5-180">
          <mxGeometry width="50" height="50" relative="1" as="geometry">
            <mxPoint x="5540" y="420" as="sourcePoint" />
            <mxPoint x="5610" y="350" as="targetPoint" />
          </mxGeometry>
        </mxCell>
        <mxCell id="-aNVaNaORuces1c9qpF5-182" value="???" style="whiteSpace=wrap;html=1;rounded=1;strokeColor=light-dark(#000000,#FF0000);" vertex="1" parent="1">
          <mxGeometry x="5710" y="260" width="120" height="60" as="geometry" />
        </mxCell>
        <mxCell id="-aNVaNaORuces1c9qpF5-183" value="???" style="whiteSpace=wrap;html=1;rounded=1;strokeColor=light-dark(#000000,#FF0000);" vertex="1" parent="1">
          <mxGeometry x="5850" y="260" width="120" height="60" as="geometry" />
        </mxCell>
        <mxCell id="-aNVaNaORuces1c9qpF5-184" value="" style="endArrow=none;html=1;rounded=0;exitX=1;exitY=0.5;exitDx=0;exitDy=0;entryX=0;entryY=0.5;entryDx=0;entryDy=0;" edge="1" parent="1" source="-aNVaNaORuces1c9qpF5-182" target="-aNVaNaORuces1c9qpF5-183">
          <mxGeometry width="50" height="50" relative="1" as="geometry">
            <mxPoint x="5820" y="420" as="sourcePoint" />
            <mxPoint x="5890" y="350" as="targetPoint" />
          </mxGeometry>
        </mxCell>
        <mxCell id="-aNVaNaORuces1c9qpF5-185" value="" style="endArrow=none;html=1;rounded=0;" edge="1" parent="1">
          <mxGeometry width="50" height="50" relative="1" as="geometry">
            <mxPoint x="5559" y="380" as="sourcePoint" />
            <mxPoint x="5559" y="290" as="targetPoint" />
          </mxGeometry>
        </mxCell>
        <mxCell id="-aNVaNaORuces1c9qpF5-186" value="???" style="whiteSpace=wrap;html=1;rounded=1;strokeColor=light-dark(#000000,#FF0000);" vertex="1" parent="1">
          <mxGeometry x="5500" y="380" width="120" height="60" as="geometry" />
        </mxCell>
        <mxCell id="-aNVaNaORuces1c9qpF5-187" value="" style="endArrow=none;html=1;rounded=0;" edge="1" parent="1">
          <mxGeometry width="50" height="50" relative="1" as="geometry">
            <mxPoint x="5839" y="380" as="sourcePoint" />
            <mxPoint x="5839" y="290" as="targetPoint" />
          </mxGeometry>
        </mxCell>
        <mxCell id="-aNVaNaORuces1c9qpF5-188" value="???" style="whiteSpace=wrap;html=1;rounded=1;strokeColor=light-dark(#000000,#FF0000);" vertex="1" parent="1">
          <mxGeometry x="5780" y="380" width="120" height="60" as="geometry" />
        </mxCell>
        <mxCell id="-aNVaNaORuces1c9qpF5-189" value="" style="endArrow=none;html=1;rounded=0;exitX=1;exitY=0.5;exitDx=0;exitDy=0;entryX=0;entryY=0.5;entryDx=0;entryDy=0;" edge="1" parent="1" target="-aNVaNaORuces1c9qpF5-188">
          <mxGeometry width="50" height="50" relative="1" as="geometry">
            <mxPoint x="5620" y="409.71000000000004" as="sourcePoint" />
            <mxPoint x="5640" y="409.71000000000004" as="targetPoint" />
          </mxGeometry>
        </mxCell>
        <mxCell id="-aNVaNaORuces1c9qpF5-190" value="Hakim" style="whiteSpace=wrap;html=1;rounded=1;" vertex="1" parent="1">
          <mxGeometry x="5640" y="500" width="120" height="60" as="geometry" />
        </mxCell>
        <mxCell id="-aNVaNaORuces1c9qpF5-191" value="" style="endArrow=none;html=1;rounded=0;" edge="1" parent="1">
          <mxGeometry width="50" height="50" relative="1" as="geometry">
            <mxPoint x="5699.55" y="500" as="sourcePoint" />
            <mxPoint x="5699.55" y="410" as="targetPoint" />
          </mxGeometry>
        </mxCell>
      </root>
    </mxGraphModel>
  </diagram>
</mxfile>
